<svg width="180" height="40" viewBox="0 0 180 40" fill="none" xmlns="http://www.w3.org/2000/svg">
  <!-- Coral icon (simplified and properly positioned) -->
  <g transform="scale(0.028) translate(0, 50)">
    <path d="M608.047 0C707.156 0 787.502 80.3463 787.502 179.456C787.502 198.614 795.754 217.596 812.346 227.175L852.155 250.157C892.871 273.662 943.474 265.344 988.798 252.852C1004.02 248.658 1020.04 246.418 1036.59 246.418C1135.7 246.419 1216.04 326.758 1216.04 425.866C1216.04 524.975 1135.7 605.321 1036.59 605.322C937.482 605.322 857.136 524.976 857.136 425.866C857.136 386.756 844.211 344.541 810.341 324.986C775.761 305.021 731.866 315.322 697.237 335.203C670.965 350.285 640.514 358.911 608.047 358.911C575.326 358.911 544.654 350.15 518.242 334.849C483.762 314.872 440.255 304.347 405.745 324.273C371.596 343.991 358.957 386.434 358.957 425.866C358.957 487.753 327.631 542.319 279.97 574.578C247.932 596.263 219.676 628.234 219.676 666.92C219.676 705.606 247.931 737.577 279.967 759.263C327.626 791.525 358.95 846.095 358.95 907.98C358.95 944.597 371.092 983.433 402.804 1001.74L408.6 1005.09C443.774 1025.39 487.815 1015.11 523.645 995.981C548.802 982.553 577.533 974.942 608.04 974.942C638.285 974.942 666.781 982.426 691.78 995.642C727.772 1014.67 771.91 1024.92 807.168 1004.56L813.591 1000.85C845.019 982.707 857.129 944.269 857.129 907.98C857.13 808.871 937.476 728.531 1036.58 728.531C1135.69 728.532 1216.03 808.872 1216.03 907.98C1216.03 1007.09 1135.69 1087.43 1036.58 1087.44C1017.43 1087.44 998.98 1084.43 981.673 1078.88C938.218 1064.92 889.047 1056.25 849.521 1079.07L816.117 1098.36C796.728 1109.55 787.495 1132.01 787.495 1154.4C787.494 1253.51 707.149 1333.85 608.04 1333.85C508.932 1333.85 428.585 1253.51 428.584 1154.4C428.584 1132.38 419.452 1110.32 400.38 1099.31L366.246 1079.6C326.589 1056.71 277.263 1065.34 233.599 1079.13C216.529 1084.53 198.355 1087.44 179.502 1087.44C80.3922 1087.44 0.0458984 1007.09 0.0458984 907.98C0.0464404 848.546 28.9404 795.862 73.4473 763.206C105.478 739.704 133.97 706.646 133.97 666.918C133.97 627.191 105.481 594.134 73.4511 570.633C28.9458 537.978 0.0528024 485.299 0.0528024 425.866C0.0535895 326.758 80.3995 246.418 179.508 246.418C195.742 246.418 211.471 248.575 226.425 252.617C271.979 264.93 322.765 273.21 363.632 249.616L404.213 226.187C420.471 216.801 428.591 198.228 428.591 179.456C428.591 80.3467 508.938 0.000670488 608.047 0Z" fill="#0E7490"/>
    <path d="M596.092 484.888C600.367 473.333 616.71 473.333 620.986 484.888L665.018 603.881C666.362 607.513 669.226 610.378 672.859 611.722L791.852 655.753C803.407 660.029 803.407 676.372 791.852 680.648L672.859 724.679C669.226 726.024 666.362 728.888 665.018 732.521L620.986 851.514C616.71 863.069 600.367 863.069 596.092 851.514L552.06 732.521C550.716 728.888 547.852 726.024 544.219 724.679L425.226 680.648C413.671 676.372 413.671 660.029 425.226 655.753L544.219 611.722C547.852 610.378 550.716 607.513 552.06 603.881L596.092 484.888Z" fill="#0E7490"/>
  </g>
  <text x="42" y="27" font-family="system-ui, -apple-system, sans-serif" font-size="20" font-weight="600" fill="#1a1a1a">Coraltalk</text>
</svg>
